<svg width="44" height="44" viewBox="0 0 44 44" fill="none" xmlns="http://www.w3.org/2000/svg">
<path d="M38.3994 35.5234C19.7787 44 8.22244 36.9079 0.824939 32.6003C0.367184 32.3288 -0.410839 32.6637 0.264203 33.4054C2.72868 36.2637 10.8053 43.1531 21.3476 43.1531C31.8972 43.1531 38.1732 37.647 38.9583 36.6865C39.7381 35.7341 39.1873 35.2088 38.3992 35.5234H38.3994ZM43.629 32.7609C43.1289 32.138 40.5884 32.0219 38.9895 32.2098C37.3881 32.3923 34.9845 33.3284 35.1935 33.8905C35.3007 34.101 35.5196 34.0066 36.6197 33.912C37.7227 33.8067 40.8129 33.4337 41.4568 34.2388C42.1037 35.0495 40.4712 38.9115 40.1731 39.5343C39.885 40.1571 40.2831 40.3178 40.8242 39.9029C41.3579 39.4883 42.324 38.4144 42.9723 36.8947C43.6162 35.3667 44.009 33.2351 43.629 32.7609Z" fill="#FF9900"/>
<path fill-rule="evenodd" clip-rule="evenodd" d="M25.879 18.227C25.879 20.4511 25.9377 22.3059 24.7624 24.2811C23.8138 25.8871 22.3112 26.8747 20.6324 26.8747C18.3406 26.8747 17.0059 25.2045 17.0059 22.7395C17.0059 17.8736 21.564 16.9904 25.879 16.9904L25.879 18.227ZM31.8977 32.1421C31.5031 32.4793 30.9323 32.5035 30.4875 32.2785C28.5064 30.7048 28.1538 29.9742 27.0625 28.4726C23.7887 31.6684 21.4718 32.6238 17.2243 32.6238C12.2044 32.6238 8.29248 29.6609 8.29248 23.7271C8.29248 19.0942 10.9201 15.9385 14.6554 14.397C17.8958 13.0318 22.4204 12.791 25.879 12.4137L25.879 11.6749C25.879 10.3179 25.988 8.71202 25.157 7.53979C24.4266 6.4879 23.0332 6.05428 21.8075 6.05428C19.5327 6.05428 17.5012 7.17032 17.0059 9.48279C16.9051 9.99681 16.5107 10.5027 15.9734 10.5267L10.1812 9.93266C9.69441 9.82806 9.15721 9.4508 9.29151 8.73606C10.6262 2.02356 16.9638 0 22.6384 0C25.5429 0 29.3372 0.73878 31.6289 2.84257C34.5335 5.436 34.2564 8.89667 34.2564 12.6625L34.2564 21.5592C34.2564 24.233 35.4148 25.4052 36.506 26.8506C36.8921 27.3645 36.9762 27.9829 36.4892 28.3681C35.272 29.3396 33.1062 31.1464 31.9143 32.1582L31.8975 32.1421" fill="black"/>
<path d="M38.3994 35.5234C19.7787 44 8.22244 36.9079 0.824939 32.6003C0.367184 32.3288 -0.410839 32.6637 0.264203 33.4054C2.72868 36.2637 10.8053 43.1531 21.3476 43.1531C31.8972 43.1531 38.1732 37.647 38.9583 36.6865C39.7381 35.7341 39.1873 35.2088 38.3992 35.5234H38.3994ZM43.629 32.7609C43.1289 32.138 40.5884 32.0219 38.9895 32.2098C37.3881 32.3923 34.9845 33.3284 35.1935 33.8905C35.3007 34.101 35.5196 34.0066 36.6197 33.912C37.7227 33.8067 40.8129 33.4337 41.4568 34.2388C42.1037 35.0495 40.4712 38.9115 40.1731 39.5343C39.885 40.1571 40.2831 40.3178 40.8242 39.9029C41.3579 39.4883 42.324 38.4144 42.9723 36.8947C43.6162 35.3667 44.009 33.2351 43.629 32.7609Z" fill="#FF9900"/>
<path fill-rule="evenodd" clip-rule="evenodd" d="M25.879 18.227C25.879 20.4511 25.9377 22.3059 24.7624 24.2811C23.8138 25.8871 22.3112 26.8747 20.6324 26.8747C18.3406 26.8747 17.0059 25.2045 17.0059 22.7395C17.0059 17.8736 21.564 16.9904 25.879 16.9904L25.879 18.227ZM31.8977 32.1421C31.5031 32.4793 30.9323 32.5035 30.4875 32.2785C28.5064 30.7048 28.1538 29.9742 27.0625 28.4726C23.7887 31.6684 21.4718 32.6238 17.2243 32.6238C12.2044 32.6238 8.29248 29.6609 8.29248 23.7271C8.29248 19.0942 10.9201 15.9385 14.6554 14.397C17.8958 13.0318 22.4204 12.791 25.879 12.4137L25.879 11.6749C25.879 10.3179 25.988 8.71202 25.157 7.53979C24.4266 6.4879 23.0332 6.05428 21.8075 6.05428C19.5327 6.05428 17.5012 7.17032 17.0059 9.48279C16.9051 9.99681 16.5107 10.5027 15.9734 10.5267L10.1812 9.93266C9.69441 9.82806 9.15721 9.4508 9.29151 8.73606C10.6262 2.02356 16.9638 0 22.6384 0C25.5429 0 29.3372 0.73878 31.6289 2.84257C34.5335 5.436 34.2564 8.89667 34.2564 12.6625L34.2564 21.5592C34.2564 24.233 35.4148 25.4052 36.506 26.8506C36.8921 27.3645 36.9762 27.9829 36.4892 28.3681C35.272 29.3396 33.1062 31.1464 31.9143 32.1582L31.8975 32.1421" fill="black"/>
</svg>
