<svg width="39" height="40" viewBox="0 0 39 40" fill="none" xmlns="http://www.w3.org/2000/svg">
<path d="M29.765 32C27.7526 32 26.1244 33.8 26.1244 36C26.1244 38.2 27.7526 40 29.765 40C31.7773 40 33.4238 38.2 33.4238 36C33.4238 33.8 31.7773 32 29.765 32ZM11.4705 32C9.45811 32 7.82991 33.8 7.82991 36C7.82991 38.2 9.45811 40 11.4705 40C13.4829 40 15.1294 38.2 15.1294 36C15.1294 33.8 13.4829 32 11.4705 32ZM11.4705 26L13.4829 22H27.1123C28.4843 22 29.6918 21.18 30.3138 19.94L38.3633 4H8.1958L6.47612 0H0.493835V4H4.15272L10.7387 19.18L5.28698 30H33.4238V26H11.4705Z" fill="#FBD5B2"/>
</svg>
