<svg width="34" height="52" viewBox="0 0 34 52" fill="none" xmlns="http://www.w3.org/2000/svg">
<path d="M16.9876 11.7C18.5924 11.7 20.1313 12.3848 21.266 13.6038C22.4008 14.8228 23.0382 16.4761 23.0382 18.2C23.0382 19.0536 22.8817 19.8988 22.5777 20.6874C22.2736 21.4761 21.8279 22.1926 21.266 22.7962C20.7042 23.3998 20.0372 23.8786 19.3031 24.2052C18.569 24.5319 17.7822 24.7 16.9876 24.7C15.3829 24.7 13.8439 24.0152 12.7092 22.7962C11.5745 21.5772 10.9371 19.9239 10.9371 18.2C10.9371 16.4761 11.5745 14.8228 12.7092 13.6038C13.8439 12.3848 15.3829 11.7 16.9876 11.7ZM16.9876 0C21.4808 0 25.79 1.91749 28.9672 5.33066C32.1443 8.74382 33.9293 13.3731 33.9293 18.2C33.9293 31.85 16.9876 52 16.9876 52C16.9876 52 0.0460205 31.85 0.0460205 18.2C0.0460205 13.3731 1.83094 8.74382 5.00811 5.33066C8.18528 1.91749 12.4944 0 16.9876 0ZM16.9876 5.2C13.7782 5.2 10.7002 6.56964 8.43083 9.00761C6.16142 11.4456 4.88648 14.7522 4.88648 18.2C4.88648 20.8 4.88648 26 16.9876 43.446C29.0888 26 29.0888 20.8 29.0888 18.2C29.0888 14.7522 27.8139 11.4456 25.5445 9.00761C23.275 6.56964 20.1971 5.2 16.9876 5.2Z" fill="#F3BCC3" fill-opacity="0.7"/>
</svg>
