<?xml version="1.0" standalone="no"?>
<!DOCTYPE svg PUBLIC "-//W3C//DTD SVG 20010904//EN"
 "http://www.w3.org/TR/2001/REC-SVG-20010904/DTD/svg10.dtd">
<svg version="1.0" xmlns="http://www.w3.org/2000/svg"
 width="513.000000pt" height="475.000000pt" viewBox="0 0 513.000000 475.000000"
 preserveAspectRatio="xMidYMid meet">

<g transform="translate(0.000000,475.000000) scale(0.100000,-0.100000)"
fill="#000000" stroke="none">
<path d="M990 4734 c0 -4 937 -1779 1015 -1921 l24 -43 -615 0 -614 0 -296
395 -296 395 -99 0 c-93 0 -99 -1 -99 -20 0 -11 43 -279 96 -595 l96 -575 -96
-575 c-53 -316 -96 -584 -96 -595 0 -19 6 -20 99 -20 l99 0 296 395 296 395
614 0 615 0 -24 -42 c-78 -143 -1015 -1918 -1015 -1922 0 -4 100 -5 222 -4
l223 3 854 983 855 982 807 0 c503 0 826 4 860 10 122 23 229 107 283 220 29
60 31 73 31 170 0 97 -2 110 -31 170 -54 113 -161 197 -283 220 -34 6 -357 10
-860 10 l-807 0 -855 983 -854 982 -223 3 c-122 1 -222 0 -222 -4z"/>
</g>
</svg>
