<svg width="50" height="52" viewBox="0 0 50 52" fill="none" xmlns="http://www.w3.org/2000/svg">
<g clip-path="url(#clip0_26_35)">
<path d="M25 0C11.2 0 0 11.648 0 26C0 40.352 11.2 52 25 52C38.8 52 50 40.352 50 26C50 11.648 38.8 0 25 0ZM25 10.4C29.825 10.4 33.75 14.482 33.75 19.5C33.75 24.518 29.825 28.6 25 28.6C20.175 28.6 16.25 24.518 16.25 19.5C16.25 14.482 20.175 10.4 25 10.4ZM25 46.8C19.925 46.8 13.925 44.668 9.65 39.312C14.029 35.7389 19.4341 33.7969 25 33.7969C30.5659 33.7969 35.971 35.7389 40.35 39.312C36.075 44.668 30.075 46.8 25 46.8Z" fill="#FEA801" fill-opacity="0.41"/>
</g>
<defs>
<clipPath id="clip0_26_35">
<rect width="50" height="52" fill="white"/>
</clipPath>
</defs>
</svg>
